<svg width="78" height="20" viewBox="0 0 78 20" fill="none" xmlns="http://www.w3.org/2000/svg">
<path d="M16.3941 2.7V19.5H12.5061V12.612H4.87414V19.5H0.986141V2.7H4.87414V9.324H12.5061V2.7H16.3941ZM25.889 16.692C26.561 16.692 27.153 16.596 27.665 16.404C28.193 16.196 28.681 15.876 29.129 15.444L31.121 17.604C29.905 18.996 28.129 19.692 25.793 19.692C24.337 19.692 23.049 19.412 21.929 18.852C20.809 18.276 19.945 17.484 19.337 16.476C18.729 15.468 18.425 14.324 18.425 13.044C18.425 11.78 18.721 10.644 19.313 9.636C19.921 8.612 20.745 7.82 21.785 7.26C22.841 6.684 24.025 6.396 25.337 6.396C26.569 6.396 27.689 6.66 28.697 7.188C29.705 7.7 30.505 8.452 31.097 9.444C31.705 10.42 32.009 11.58 32.009 12.924L22.457 14.772C22.729 15.412 23.153 15.892 23.729 16.212C24.321 16.532 25.041 16.692 25.889 16.692ZM25.337 9.228C24.393 9.228 23.625 9.532 23.033 10.14C22.441 10.748 22.129 11.588 22.097 12.66L28.385 11.436C28.209 10.764 27.849 10.228 27.305 9.828C26.761 9.428 26.105 9.228 25.337 9.228ZM46.9096 6.588V19.5H43.3336V18.012C42.4056 19.132 41.0616 19.692 39.3016 19.692C38.0856 19.692 36.9816 19.42 35.9896 18.876C35.0136 18.332 34.2456 17.556 33.6856 16.548C33.1256 15.54 32.8456 14.372 32.8456 13.044C32.8456 11.716 33.1256 10.548 33.6856 9.54C34.2456 8.532 35.0136 7.756 35.9896 7.212C36.9816 6.668 38.0856 6.396 39.3016 6.396C40.9496 6.396 42.2376 6.916 43.1656 7.956V6.588H46.9096ZM39.9496 16.62C40.8936 16.62 41.6776 16.3 42.3016 15.66C42.9256 15.004 43.2376 14.132 43.2376 13.044C43.2376 11.956 42.9256 11.092 42.3016 10.452C41.6776 9.796 40.8936 9.468 39.9496 9.468C38.9896 9.468 38.1976 9.796 37.5736 10.452C36.9496 11.092 36.6376 11.956 36.6376 13.044C36.6376 14.132 36.9496 15.004 37.5736 15.66C38.1976 16.3 38.9896 16.62 39.9496 16.62ZM54.2879 19.692C52.8319 19.692 51.6959 19.308 50.8799 18.54C50.0639 17.756 49.6559 16.652 49.6559 15.228V1.692H53.3999V15.012C53.3999 15.556 53.5359 15.98 53.8079 16.284C54.0959 16.572 54.4959 16.716 55.0079 16.716C55.1999 16.716 55.3919 16.692 55.5839 16.644C55.7919 16.596 55.9519 16.54 56.0639 16.476L56.2319 19.38C55.6079 19.588 54.9599 19.692 54.2879 19.692ZM70.2676 1.692V19.5H66.6916V18.012C65.7636 19.132 64.4196 19.692 62.6596 19.692C61.4436 19.692 60.3396 19.42 59.3476 18.876C58.3716 18.332 57.6036 17.556 57.0436 16.548C56.4836 15.54 56.2036 14.372 56.2036 13.044C56.2036 11.716 56.4836 10.548 57.0436 9.54C57.6036 8.532 58.3716 7.756 59.3476 7.212C60.3396 6.668 61.4436 6.396 62.6596 6.396C64.3076 6.396 65.5956 6.916 66.5236 7.956V1.692H70.2676ZM63.3076 16.62C64.2516 16.62 65.0356 16.3 65.6596 15.66C66.2836 15.004 66.5956 14.132 66.5956 13.044C66.5956 11.956 66.2836 11.092 65.6596 10.452C65.0356 9.796 64.2516 9.468 63.3076 9.468C62.3476 9.468 61.5556 9.796 60.9316 10.452C60.3076 11.092 59.9956 11.956 59.9956 13.044C59.9956 14.132 60.3076 15.004 60.9316 15.66C61.5556 16.3 62.3476 16.62 63.3076 16.62ZM73.0128 6.588H76.7568V19.5H73.0128V6.588ZM74.8848 4.788C74.1968 4.788 73.6368 4.588 73.2048 4.188C72.7728 3.788 72.5568 3.292 72.5568 2.7C72.5568 2.108 72.7728 1.612 73.2048 1.212C73.6368 0.811999 74.1968 0.611999 74.8848 0.611999C75.5728 0.611999 76.1328 0.803999 76.5648 1.188C76.9968 1.572 77.2128 2.052 77.2128 2.628C77.2128 3.252 76.9968 3.772 76.5648 4.188C76.1328 4.588 75.5728 4.788 74.8848 4.788Z" fill="#F272A3"/>
</svg>
