<svg width="32" height="33" viewBox="0 0 32 33" fill="none" xmlns="http://www.w3.org/2000/svg">
<g clip-path="url(#clip0_1273_8554)">
<path d="M20.5929 2.90002C18.4169 2.90002 16.3338 3.77249 14.7998 5.31099C13.2658 3.77249 11.1827 2.90002 9.0067 2.90002C4.48144 2.90002 0.799805 6.6042 0.799805 11.1572C0.799805 14.5074 3.11765 18.704 7.68817 23.6315C11.0542 27.2598 14.4673 29.9695 14.5017 29.9962C14.5892 30.0654 14.6948 30.1 14.7998 30.1C14.9048 30.1 15.0104 30.0654 15.0979 29.9962C15.1317 29.9695 18.5454 27.2598 21.9114 23.6315C26.4826 18.704 28.7998 14.5074 28.7998 11.1572C28.7998 6.6042 25.1182 2.90002 20.5929 2.90002Z" fill="#F179A6"/>
<path d="M24.8001 28.5C28.7765 28.5 32.0001 25.2765 32.0001 21.3C32.0001 17.3236 28.7765 14.1 24.8001 14.1C20.8236 14.1 17.6001 17.3236 17.6001 21.3C17.6001 25.2765 20.8236 28.5 24.8001 28.5Z" fill="#D7E9B0"/>
<path d="M24.3335 26.1C24.1177 26.1 23.9281 25.947 23.8791 25.728L22.7708 20.7891L22.4179 21.5151C22.3385 21.6777 22.1775 21.7803 22.0002 21.7803H19.6669C19.409 21.7803 19.2002 21.5655 19.2002 21.3003C19.2002 21.0351 19.409 20.8203 19.6669 20.8203H21.712L22.5164 19.1657C22.6045 18.9845 22.7935 18.8801 22.9889 18.9035C23.1844 18.9275 23.3442 19.0751 23.3885 19.2724L24.1725 22.7666L24.8031 16.9272C24.8282 16.6932 25.0149 16.5126 25.2435 16.5006C25.471 16.4886 25.6752 16.6494 25.723 16.8792L26.8022 22.0587L27.1668 21.1215C27.2374 20.9391 27.4094 20.8197 27.6002 20.8197H29.9335C30.1914 20.8197 30.4002 21.0345 30.4002 21.2997C30.4002 21.5649 30.1914 21.7797 29.9335 21.7797H27.9164L27.1003 23.8777C27.0239 24.0739 26.8325 24.1951 26.6278 24.1777C26.423 24.1597 26.2539 24.0067 26.2107 23.7998L25.4133 19.972L24.7973 25.6716C24.7722 25.9044 24.5879 26.0844 24.3604 26.0976C24.351 26.0976 24.3423 26.0982 24.3329 26.0982L24.3335 26.1Z" fill="#74A700"/>
</g>
<defs>
<clipPath id="clip0_1273_8554">
<rect width="32" height="32" fill="white" transform="translate(0 0.5)"/>
</clipPath>
</defs>
</svg>
