<svg width="512" height="512" viewBox="0 0 512 512" fill="none" xmlns="http://www.w3.org/2000/svg">
<rect width="512" height="512" fill="white"/>
<path d="M81.5619 257.925H89.8454C93.1195 257.925 96.2432 256.661 98.4414 254.473C102.861 250.049 106.378 246.257 108.611 243.506C112.949 238.181 117.797 235.595 122.98 235.829C131.772 236.227 137.071 244.092 143.226 253.197C144.279 254.754 145.389 256.404 146.569 258.101C149.196 261.869 151.209 264.491 152.562 265.942C153.291 265.17 154.332 263.906 155.744 261.893C164.12 249.861 186.194 210.268 192.071 199.337L192.152 199.185C196.641 190.829 200.447 185.258 205.526 183.338C209.645 181.782 214.122 182.004 218.102 183.97C224.257 187.002 228.884 193.708 232.274 204.498C235.687 215.359 237.712 226.162 240.072 238.661C241.9 248.399 243.982 259.435 247.152 273.07C247.187 273.21 247.268 273.596 247.395 274.205C249.131 282.351 250.692 288.963 252.069 294.335C254.626 281.239 258.293 264.081 261.602 248.808L262.146 246.292C262.169 246.175 262.204 246.058 262.227 245.941L265.304 233.956C266.322 228.678 269.122 224.032 273.206 220.837C273.368 220.708 273.542 220.579 273.704 220.439C283.098 212.796 290.676 217.899 295.384 223.517C302.673 232.224 318.581 256.088 319.252 257.106C319.391 257.317 319.437 257.363 319.518 257.527C319.61 257.399 319.703 257.258 319.807 257.106C327.234 245.952 340.204 223.844 340.331 223.622C342.436 220.006 347.145 215.886 353.45 216.272C362.995 216.857 368.294 226.677 371.464 234.027C376.924 246.702 378.984 248.293 389.905 248.293H433.278C436.957 237.374 439.687 226.103 441.365 214.446C444.188 194.749 445.507 174.923 439.56 155.589C426.984 114.65 400.155 89.265 358.217 80.9204C355.683 80.4171 353.115 80.1362 350.558 79.7617H335.877C331.307 80.499 326.702 81.0374 322.179 81.9971C303.043 86.0699 286.569 95.386 272.211 108.623C267.942 112.555 264.055 116.921 260.064 121.146C257.171 124.2 254.013 124.317 251.248 121.11C241.402 109.723 230.261 99.9504 217.119 92.6122C204.612 85.6252 191.284 81.3534 177.02 80.1596C176.476 80.1128 175.932 79.8904 175.4 79.75H160.719C157.051 80.3469 153.326 80.7214 149.716 81.5758C107.905 91.3599 82.0362 117.822 70.7562 159.311C69.3679 164.437 69.0092 169.844 68.1647 175.122C68.0721 175.684 67.8986 176.223 67.7598 176.773V195.58C68.2341 199.993 68.6737 204.405 69.1828 208.817C71.1264 225.822 75.3492 242.161 81.5619 257.937V257.925Z" fill="#F9BED5"/>
<path d="M389.9 267.006C369.26 267.006 361.775 258.416 354.486 241.481C353.989 240.311 353.514 239.328 353.086 238.497C348.667 245.928 340.626 259.317 335.154 267.545C329.554 275.948 323.307 277.563 319.015 277.388C310.269 277.083 305.109 269.593 303.743 267.334C302.32 265.204 290.3 247.239 283.324 238.192C283.324 238.239 283.301 238.274 283.289 238.321L280.165 250.446L279.656 252.787C276.88 265.59 268.423 304.54 267.358 314.406C266.491 322.423 264.744 330.182 257.929 332.675C256.749 333.108 255.535 333.319 254.331 333.319C251.485 333.319 248.674 332.137 246.372 329.902C244.081 327.666 238.701 322.423 229.272 278.113L229.099 277.294C225.848 263.308 223.731 252.061 221.868 242.136C219.531 229.731 217.692 219.935 214.614 210.127C213.446 206.417 212.335 204.111 211.49 202.719C210.715 203.936 209.709 205.656 208.401 208.091L208.32 208.255C203.265 217.676 180.173 259.27 170.871 272.648C166.428 279.038 160.783 285.557 152.568 285.568C143.082 285.568 136.904 276.697 131.443 268.867C130.205 267.088 129.037 265.368 127.937 263.729C126.225 261.19 124.062 257.995 122.419 255.958C119.781 259.142 116.102 263.097 111.463 267.744C105.863 273.35 98.0541 276.568 90.002 276.615C102.855 302.012 119.978 324.354 139.553 344.941C161.373 367.891 185.726 387.869 211.028 406.7C219.82 413.243 228.786 419.539 237.741 425.871C249.623 434.286 261.354 434.309 273.374 426C299.498 407.929 324.846 388.829 348.505 367.517C373.76 344.753 396.344 319.661 413.859 290.203C418.36 282.642 422.397 274.895 425.961 266.983H389.934L389.9 267.006Z" fill="#EE5790"/>
</svg>
